<svg xmlns="http://www.w3.org/2000/svg" width="337" height="340"><path fill="#5EEC68" d="M173.75 14.313C182.43 21.557 189.436 29.127 195 39l1.398 2.39c4.92 9.006 7.958 19.331 7.602 29.61 3.75-2.369 7.072-4.92 10.438-7.812C230.796 50.058 251.52 46.2 272 48c19.484 2.45 36.67 12.97 49.313 27.75 11.061 14.78 16.423 30.646 16.208 49.063-.021 2.186 0 4.369.026 6.554.044 21.83-9.065 40.503-23.953 56.164-8.963 8.498-19.211 14.358-30.817 18.461A51.6 51.6 0 0 0 276 209l1.137 1.582C285.574 222.718 291.377 237.1 292 252l.156 2.617c.748 23.001-7.9 44.325-23.156 61.383-13.271 13.681-31.301 23.566-50.602 24.336-21.712.33-41.198-4.2-57.878-18.879C145.406 306.719 138.17 289.503 134 269c-.84.835-.84.835-1.695 1.688-16.988 16.168-36.63 21.915-59.684 21.582-20.152-.685-38.024-11.195-51.746-25.395C6.445 250.428.278 229.65 1.125 208c1.664-22.094 11.222-42.414 27.277-57.809C38.118 141.995 50.463 134.691 63 132a271 271 0 0 0-3.805-7.398C48.172 103.588 44.44 81.107 51 58c6.947-21.647 21.35-39.795 41.688-50.25 26.29-12.736 57.306-11.109 81.062 6.563M176.813 141c-9.93 8.983-21.183 14.008-33.813 18 0 3.732 1.103 4.951 3.125 8.063C152.612 177.904 156.402 190.49 158 203l2.875-2.562c11.13-9.446 23.369-15.665 37.125-20.438l-1.574-2.605C188.71 164.418 184.349 151.876 182 137c-2.008 0-3.863 2.72-5.187 4"/><path fill="#CEF292" d="M270 207h6l.754 1.559a169 169 0 0 0 3.086 5.726c4.134 7.404 7.483 14.312 9.16 22.715l-5 2-1-1c.486 3.123.999 5.996 2 9l-2 2-1-2-1.812.625C278 248 278 248 275 246l-1.977 1.277c-8.68 5.442-8.68 5.442-14.023 5.723 1.807-5.61 3.327-9.144 8-13l3-1v-6l3-1c-1.119-3.726-1.119-3.726-4-6v-3h2v-2l-2-1 1-1-2-2c-.625-2.625-.625-2.625-1-5l-3 1 2-5 1 2h3zM223 266l2 1-2 3h2v2l2 1-.562 1.875c-.675 2.167-.675 2.167.562 4.125l3-2c-.375 1.938-.375 1.938-1 4l-2 1 .625 1.875L228 286l-2 2v3h-3c-2.212 2.942-2.212 2.942-4 6l-1.875-.625L215 296l-2 2v-3h-3v2c-2-1-2-1-3-2-2.054.41-2.054.41-4 1q.713-2.47 1.438-4.937l.808-2.778C206 286 206 286 207 285l-2-2c.25-2.062.25-2.062 1-4l2-1-3-1v-2h-2v-2h2l-1-3c3.443-.86 5.613-.983 9 0h4l1-1c2.438-1.625 2.438-1.625 5-3"/><path fill="#70EE6E" d="M300 59c4.243 1.438 7.235 3.54 10.688 6.375l2.886 2.336c2.2 2.076 3.341 3.51 4.426 6.289l-2.875.438c-3.018.391-3.018.391-5.125 1.562l-1-8c-2.016.716-2.016.716-4 2-.805 2.05-.805 2.05-1 4l4 2h-3v2h-2l.688 2.25C304 83 304 83 303 85.313c-2.92 2.464-5.307 1.966-9 1.687l-.375-2.437L293 82l-2-1v-3l-1 2h-2l-2-5 4.59-3.613c1.682-1.444 1.682-1.444 2.41-4.387h3l1-2v4l2-1-.625-2.25c-.42-3.073.006-4.178 1.625-6.75m2 16 2 2v-2zm-10 12 2 1-2 1z"/><path fill="#BFF28C" d="m251 192 1 3 2.313-.625C257 194 257 194 260 196l-5 1v3l3 1-2 2-1 2h-2l2 4-3 1v-2c-2.44 1.926-4.8 3.8-7 6l1 3c-.937 2.688-.937 2.688-2 5l-3-1-1 2-1-3 2-1-3-1-2 3-3-3 2-2 2 1 1-3h3l2-5-4 1v-3h3v-2l1.938-.312L246 204l1-3-2-1c0-2 0-2 2.438-4.562.845-.805 1.69-1.61 2.562-2.438z"/><path fill="#A4F082" d="m327 97 4 2 2-2c3.429 8.429 3.429 8.429 3 13l-2.25.75c-2.951 1.341-4.598 2.86-6.75 5.25l-2-1-1 3c-3.786-.54-5.554-2.117-8-5v-2l1.875-.687c2.766-1.709 3.207-3.252 4.125-6.313v-2h2v-2h2z"/><path fill="#CBF291" d="m246 315 4 2v-2h2v2l6 1c-2 3-2 3-4 4l2 5q-2.87 1.726-5.75 3.438l-3.234 1.933c-2.45 1.324-4.306 2.162-7.016 2.629.613-2.962 1.254-4.38 3-7l-.625-2.375C242 323 242 323 243.938 320.375L246 318z"/><path fill="#CDF292" d="M284 280h2c1.18 1.547 1.18 1.547 2 4a56.6 56.6 0 0 1-2.875 7.25l-.895 1.969c-.729 1.6-1.478 3.191-2.23 4.781l-1-3h-2v2c-2-1-2-1-3-3-3.03-.658-3.03-.658-6-1v-2l1.813-.625c2.473-1.276 2.473-1.276 3.562-4.375 1.625-3 1.625-3 4.75-4.312L283 281z"/><path fill="#98EF7E" d="m278 135 4 2h-2l-2 6-4-1c-1.07 1.92-1.07 1.92-1.375 3.875C272 148 272 148 270.438 150.063c-1.736 1.936-1.736 1.936-1.438 4.937h-2l-2-3c-3.075.776-3.075.776-5 3l-2-2 1.5-1.25c1.934-1.872 1.934-1.872 1.5-5.75 2.332-1.206 4.496-2.165 7-3l1-3c1.813-.879 1.813-.879 4-1.562 2.145-.645 2.145-.645 4-1.438z"/><path fill="#C3F18E" d="m153 284 5 5-1 3 3 1 2-5c2 1.375 2 1.375 4 3v2h-2l-.875 1.875C162 297 162 297 160 299l-2-2-3 1-1-5-3 2-2-1-1 2c-1-3-1-3-.062-5.187.35-.599.7-1.197 1.062-1.813h2l.438-1.937C152 285 152 285 153 284"/><path fill="#28E953" d="m235 54-5 6-3-2v5l-1.937.813c-2.394 1.074-2.394 1.074-3.063 4.187l-2-6-2.375 2.438C215 67 215 67 213 68l-2-2c18.19-13.937 18.19-13.937 24-12"/><path fill="#26EA53" d="m96 165 4 2v2h-2l.188 3.875c.105 2.18.105 2.18-.188 4.125-3 2-3 2-5 2l-3 1 .063-2.875c.163-3.032.163-3.032-1.063-5.125h2c1.011-3.05 1.011-3.05 0-6l5 1z"/><path fill="#9DEF7F" d="m242 168 6 2-1 7h-2v2l-5 1-1-3-2 2-2-3c2.21-2.82 4.4-5.53 7-8m2 2 1 2Z"/><path fill="#9BEF7F" d="m206 194 6 3 2-3h2c.688 1.688.688 1.688 1 4-1.312 2.5-1.312 2.5-3 5a174 174 0 0 0-2 4h-4v-8h-5v-3h3z"/><path fill="#BFF28C" d="m193 249 5 4-4 8-1-3-1.625.438c-2.774.657-5.56 1.114-8.375 1.562q1.366-1.913 2.75-3.812c.51-.708 1.02-1.416 1.547-2.145 1.728-2.073 3.488-3.517 5.703-5.043"/><path fill="#C3F18E" d="M226.625 222.875 229 223l-2 3 5 3-1 2 3 3-2.312.438c-2.77.525-2.77.525-5.688 1.562l-2-6h-2c-.125-2.375-.125-2.375 0-5 2-2 2-2 4.625-2.125"/><path fill="#25EA52" d="M149 116h5l-1 3h-3l-1 2h2l1 8c-1.812 1.563-1.812 1.563-4 3-3-1-3-1-4.437-2.625C143 127 143 127 144.75 123.5q1.117-1.755 2.25-3.5c.68-1.326 1.355-2.656 2-4"/><path fill="#78ED71" d="M270 105h3v3l-3 3c-.896 1.997-.896 1.997-1 4l2 2v2h-2v-2l-1.875.563C265 118 265 118 263 117v-2l-6 2 2-3h3l1-3c4.333-3 4.333-3 7-3z"/><path fill="#CDF191" d="m242 258 5 2v8h-5l-1 3-4-1 2-3-1-3h2v-3l2-1zM202 321l2 1v2l3-1c-.25 2.875-.25 2.875-1 6-1.937 1.125-1.937 1.125-4 2-1.268 2.034-1.268 2.034-2 4-2.41-5.905-2.41-5.905-1.242-9.023.998-1.71 2.113-3.35 3.242-4.977"/><path fill="#CBF291" d="M290 249c2.351 3.527 2.214 5.029 2.125 9.188l-.055 3.292L292 264c-4.75 1.125-4.75 1.125-7 0 1-2 1-2 2-3q.344-2.994.68-5.988c.364-2.291 1.092-4.047 2.32-6.012m-1 10-1 2h2z"/><path fill="#79EE72" d="m164 197 1.313 1.375c1.795 1.825 1.795 1.825 4.687 3.625h-2l-1 2-3 3-2 3c-1.625-2.187-1.625-2.187-3-5 .839-3.523 2.277-5.648 5-8"/><path fill="#75EF70" d="M235 130c3.188.875 3.188.875 6 2v6l-2-1-3 3-3-2 1-4h-2v-2z"/><path fill="#ABF085" d="m135 270 4 2-2 4 5 1v2l2 2c-2.052 2.248-3.007 3.002-6 4q-.754-3.187-1.5-6.375l-.844-3.586C135 272 135 272 135 270m4 0 2 1-2 1z"/><path fill="#24E952" d="M71 187h2l1 4h3v3l-3-1-2 2c-3 .313-3 .313-6 0l-2-3 2-1 2-2h3z"/><path fill="#BEF08C" d="M323 133h2l1 3 2-1v6h-2v2c-1.375 1.625-1.375 1.625-3 3h-2c-1-3-1-3-.125-4.812L322 139c.383-1.991.726-3.991 1-6"/><path fill="#CAF290" d="M227 331h5v2l3 1c-.625 1.938-.625 1.938-2 4-3.125.75-3.125.75-6 1a177 177 0 0 1-1-7z"/><path fill="#B7F28A" d="m236 206 1 3-2 2 2 3-4 2-1-4h-3l-1 3-2-1c1.051-2.866 1.669-3.83 4.438-5.25C233 208 233 208 236 208z"/><path fill="#CEF392" d="M284 189c2 1 2 1 2.633 2.848l.492 2.214.508 2.223L288 198l-6 1-1-5h-2v-2l1.938-.937c1.998-.898 1.998-.898 3.062-2.063"/><path fill="#BAF28A" d="M280 170c2 2 2 2 2 4l-5-1 3-1zm-7 3 5 1-1 7-5 1z"/><path fill="#CFF392" d="M222 312v5h-2v2c-4.75-.75-4.75-.75-7-3l3-2-1-2c3.01-.934 3.867-1.044 7 0"/><path fill="#CDF192" d="m205 256 6 1c-2.285 4.09-4.957 7.464-8 11l-2-3 1.563-2.375L204 260l-1-2h2z"/><path fill="#B9F18A" d="M300 149c.826 2.892 1 4.887 1 8l-2 1-2 3c-1.562-1.125-1.562-1.125-3-3 .313-3.187.313-3.187 1-6l1.938-.375L299 151z"/><path fill="#CEF292" d="M233 295c1 3 1 3 1 5l7-1-3 3-2-1v2l-3 1c-2-1-2-1-2.812-3.375C230 298 230 298 231.438 296.188z"/><path fill="#CBEF90" d="M270 282c2 2 2 2 2 5h-3v4l-6 2v-5l3-1 2-1v-3z"/><path fill="#CFF493" d="M241 237h3c1.125 4.75 1.125 4.75 0 7h5l-1 2-4-1v2l-4-2z"/><path fill="#6AEE6C" d="m220 132 4 2-1 5c-2.076.553-3.844 1-6 1l-1 3-1-2c1.026-3.077 1.808-3.808 4-6z"/><path fill="#CDF191" d="m178 291 3 1v2l4-1 1 3h-3v2l-4 1c-2.125-4.625-2.125-4.625-1-8"/><path fill="#25EA52" d="M208 69c1.373 2.746 1.124 4.959 1 8l-1 3-4-2c-.25-2.25-.25-2.25 0-5 2-2.312 2-2.312 4-4"/><path fill="#CEF392" d="m274 300 2 1v3l2 1-5 6-2-1 2-6h-2c1-2 1-2 3-4"/><path fill="#CDF191" d="M238 239c1.045 3.134 1.153 4.021 0 7l-3 2c-2-3-2-3-1.625-5.687L234 240z"/><path fill="#92EF7B" d="m196 204 2 1c-4.308 4.923-4.308 4.923-7.812 5.313L188 210l-1-2 3-3c2 1 2 1 3 2z"/><path fill="#76F071" d="m72 276 1 2 3-1v3l-2.187.75c-3.06 1.36-5.28 3.08-7.813 5.25 1.477-4.677 1.477-4.677 4.125-6.312L72 279z"/><path fill="#30E956" d="M8 244c5.785 3.323 5.785 3.323 6.875 6.75L15 253l-3 1c-4-6.625-4-6.625-4-10"/><path fill="#CDF191" d="M177 325c3.4 1.133 4.053 2.125 6 5l-7 2c-.043-2-.04-4 0-6z"/><path fill="#76EF71" d="m149 209 3 1c-1.453 3.83-3.429 5.12-7 7l-1-3z"/><path fill="#BBF28B" d="M312 138h1c.39 1.287.761 2.58 1.125 3.875l.633 2.18L315 146l-2 2h-4c0-2 0-2 2-4 .398-1.988.738-3.99 1-6"/><path fill="#A1EF80" d="M292 130c1.5 1.375 1.5 1.375 3 3v2l2 1-2 3-5-2a85 85 0 0 1 2-7"/><path fill="#CDF191" d="M256 303c2.438.375 2.438.375 5 1l1 2h-2l-1 3-4-1z"/><path fill="#CFF493" d="m229 286 1 2 2 .5 2 .5 1 2h-2v4l-3 1c.875-4.75.875-4.75 2-7h-5v-2z"/><path fill="#C2F28E" d="m318 147 1 3-4 2v3l-3-1c.602-2.02 1.273-4.021 2-6 2-1 2-1 4-1"/><path fill="#CDF292" d="m269 274 1.813 1.875c2.195 2.262 2.195 2.262 5.187 4.125l-4 2-2-2h-3v-4h2z"/><path fill="#24EB52" d="m75 183 7 2-1 2-3 1-2 2c-1.062-2.375-1.062-2.375-2-5z"/><path fill="#9AEF7E" d="m255 155 1 3 2 1-1 5-3-3-2 1c.75-4.75.75-4.75 3-7"/><path fill="#CEF292" d="M226 263h4l1 3c-1.375 1.5-1.375 1.5-3 3h-2a88 88 0 0 1-1-5z"/><path fill="#B2F087" d="m196 236 2 1-1 5-5-1v-3c1.875-1.062 1.875-1.062 4-2"/><path fill="#22EB52" d="M61 196c.625 1.875.625 1.875 1 4l-2 2c-2.125-.375-2.125-.375-4-1 .813-1.937.813-1.937 2-4z"/><path fill="#C8F190" d="m186 331 2 1c.625 2.563.625 2.563 1 5l-7-2z"/><path fill="#9EEF7F" d="m135 270 4 2-2 4 2 1-2 4zm4 0 2 1-2 1z"/><path fill="#9DEF7F" d="M205 204h2v4l-1.875.25c-2.31.563-2.31.563-3.375 2.813L201 213l-1-3h2l-1-4h4z"/><path fill="#2AEA54" d="M65 199c2.063.438 2.063.438 4 1-.187 1.813-.187 1.813-1 4-2.562 1.75-2.562 1.75-5 3 .875-6.875.875-6.875 2-8"/><path fill="#27E953" d="m161 113 3 1c-1.875 4.75-1.875 4.75-3 7l-.375-1.937L160 117l-2-1z"/><path fill="#99EF7E" d="M182 217c2 1.75 2 1.75 4 4v4h-3c-1.43-2.354-2.087-3.48-1.625-6.25z"/><path fill="#B4F389" d="M278 162c3 1 3 1 5 4l-3 1-1 3c-.78-2.342-1.517-4.584-2-7z"/><path fill="#28EA53" d="M171 108c-.312 1.875-.312 1.875-1 4l-3 2v-3l-3-1c2.647-1.46 3.894-2 7-2"/><path fill="#78ED71" d="m288 90 4 2c-1.375 2-1.375 2-3 4h-2l-1-4h2z"/><path fill="#23EA52" d="M31 223c1.333 2.667.671 4.167 0 7h-2l-1 2c-.187-3.375-.187-3.375 0-7z"/><path fill="#0EE749" d="M128 114h2c.125 5.75.125 5.75-1 8l-2-1c-.75-2.437-.75-2.437-1-5z"/><path fill="#CCF191" d="m240 224 6 1-2 4-4-2z"/><path fill="#CDF292" d="M255 223c2 2 2 2 2 6l-4 1c-.687-1.812-.687-1.812-1-4 1.438-1.75 1.438-1.75 3-3"/><path fill="#A1EE80" d="m199 214 2 1c-3.625 5.75-3.625 5.75-7 8 .574-3.871 2.487-6.082 5-9"/><path fill="#A7EF83" d="M233 189h4c1.75 2 1.75 2 3 4h-2l-1 4z"/><path fill="#7DEC72" d="m204 173 2 1-2 1zm-4 2h4c-1.133 3.4-2.125 4.053-5 6l-2-1c1.25-2.5 1.25-2.5 3-5"/><path fill="#98ED7D" d="M294 122c.688 1.813.688 1.813 1 4-1.842 2.486-3.005 3.002-6 4 .542-3.796 2.201-5.472 5-8"/><path fill="#CDF191" d="m253 300 3 3-5 4v-2l-2-1z"/><path fill="#9DEE7F" d="M187 218h2a105 105 0 0 1 4 5h-2l-1 3c-3-4.625-3-4.625-3-8"/><path fill="#A8F083" d="m268 159 2 3c-.875 2.688-.875 2.688-2 5l-1-3-2-1h2z"/><path fill="#7DEC73" d="M282 101h2c.25 5.625.25 5.625-2 9h-2l2-6-2-1z"/><path fill="#39EB5A" d="M258 48h8l-1 4-7-3z"/><path fill="#C7F390" d="m203 252 2 1-3 5-3-1c1.75-3.875 1.75-3.875 4-5"/><path fill="#CFF392" d="m229 244 2 1v3c-2 1.688-2 1.688-4 3 0-4 0-4 2-7"/><path fill="#CEF292" d="m261 233 5 1-1 5-2-1v-2h-2z"/><path fill="#ADF085" d="m222 206 5 1c-2 3-2 3-4.625 3.688L220 211z"/><path fill="#54EA63" d="M122 197h2l-1 7-4 1c.628-2.929 1.586-5.361 3-8"/><path fill="#2DE855" d="m74 195 2 2c-.25 2.563-.25 2.563-1 5l-2 1c-.125-5.75-.125-5.75 1-8"/><path fill="#CCF090" d="m310 175 3 2h-2l-.875 1.938C309 181 309 181 307 182l-1-3h2v-2h2z"/><path fill="#40EA5C" d="M215 92h5l-5 5-1-3z"/><path fill="#50EC62" d="m288 53 7 2c-3 2-3 2-5.187 1.625L288 56z"/></svg>